<svg xmlns="http://www.w3.org/2000/svg" width="96" height="16" viewBox="0 0 96 16" fill="none">
<g clip-path="url(#clip0_606_5821)">
<path d="M15.8772 4.25728C13.5512 4.25728 11.6503 2.35967 11.6503 0H8.12016C8.12016 4.29246 11.5847 7.78746 15.8772 7.78746V4.25728Z" fill="#9CFF94"/>
<path d="M11.6503 7.96868C11.6503 10.3284 13.5512 12.226 15.8772 12.226V15.7561C11.5847 15.7561 8.12016 12.2611 8.12016 7.96868H11.6503Z" fill="#9CFF94"/>
<path d="M4.22687 15.9378C4.22687 13.5781 2.32602 11.6805 0 11.6805V8.1503C4.29251 8.1503 7.75704 11.6453 7.75704 15.9378H4.22687Z" fill="#9CFF94"/>
<path d="M4.22687 7.96878C4.22687 5.60911 2.32602 3.7115 0 3.7115V0.181328C4.29251 0.181328 7.75704 3.67633 7.75704 7.96878H4.22687Z" fill="#9CFF94"/>
<path d="M34.0153 15.7746H23.0037C22.7297 15.7746 22.5278 15.7169 22.398 15.6016C22.2826 15.4717 22.2249 15.2698 22.2249 14.9958V0.977101C22.2249 0.703073 22.2826 0.508368 22.398 0.392988C22.5278 0.263185 22.7297 0.198283 23.0037 0.198283H26.357C26.631 0.198283 26.8257 0.263185 26.9411 0.392988C27.0709 0.508368 27.1358 0.703073 27.1358 0.977101V11.6858H30.0996V8.18116C30.0996 7.90713 30.1573 7.71242 30.2727 7.59704C30.4025 7.46724 30.6044 7.40234 30.8784 7.40234H34.0153C34.2894 7.40234 34.4841 7.46724 34.5994 7.59704C34.7293 7.71242 34.7942 7.90713 34.7942 8.18116V14.9958C34.7942 15.2698 34.7293 15.4717 34.5994 15.6016C34.4841 15.7169 34.2894 15.7746 34.0153 15.7746Z" fill="#9CFF94"/>
<path fill-rule="evenodd" clip-rule="evenodd" d="M41.6805 14.9958C41.6805 15.2698 41.6156 15.4717 41.4858 15.6016C41.3704 15.7169 41.1757 15.7746 40.9016 15.7746H37.7215C37.4474 15.7746 37.2455 15.7169 37.1157 15.6016C37.0004 15.4717 36.9427 15.2698 36.9427 14.9958V9.28448C36.9427 8.8518 37.0076 8.35423 37.1374 7.79175C37.2816 7.22927 37.4979 6.57304 37.7864 5.82307L39.6685 0.912199C39.7551 0.667015 39.8849 0.486734 40.0579 0.371354C40.2454 0.255974 40.4834 0.198283 40.7718 0.198283H46.5913C46.8654 0.198283 47.0889 0.255974 47.262 0.371354C47.4495 0.486734 47.5865 0.667015 47.673 0.912199L49.5552 5.82307C49.8436 6.57304 50.0527 7.22927 50.1825 7.79175C50.3268 8.35423 50.3989 8.8518 50.3989 9.28448V14.9958C50.3989 15.2698 50.334 15.4717 50.2042 15.6016C50.0888 15.7169 49.8941 15.7746 49.6201 15.7746H46.3534C46.0649 15.7746 45.8486 15.7169 45.7043 15.6016C45.5745 15.4717 45.5096 15.2698 45.5096 14.9958V11.9671H41.6805V14.9958ZM42.9136 4.74138L41.8968 8.02972H45.2933L44.2765 4.74138C44.2188 4.61158 44.1539 4.51783 44.0818 4.46014C44.0241 4.40245 43.952 4.37361 43.8655 4.37361H43.3246C43.2381 4.37361 43.1588 4.40245 43.0867 4.46014C43.029 4.51783 42.9713 4.61158 42.9136 4.74138Z" fill="#9CFF94"/>
<path d="M56.9123 15.7746H60.417C60.6911 15.7746 60.8858 15.7169 61.0011 15.6016C61.1309 15.4717 61.1958 15.2698 61.1958 14.9958V12.2483L64.4842 7.79175C64.8015 7.34465 65.0178 6.95524 65.1332 6.62352C65.2486 6.2918 65.3063 5.79423 65.3063 5.13079V0.977101C65.3063 0.703073 65.2414 0.508368 65.1116 0.392988C64.9962 0.263185 64.8015 0.198283 64.5274 0.198283H61.304C61.03 0.198283 60.8281 0.263185 60.6983 0.392988C60.5829 0.508368 60.5252 0.703073 60.5252 0.977101V4.52504C60.5252 4.66927 60.518 4.82071 60.5036 4.97935C60.4891 5.138 60.4314 5.28944 60.3305 5.43366L59.3353 6.9913C59.2632 7.1211 59.1839 7.21485 59.0974 7.27254C59.0252 7.33023 58.9315 7.35907 58.8161 7.35907H58.5998C58.4844 7.35907 58.3834 7.33023 58.2969 7.27254C58.2248 7.21485 58.1527 7.1211 58.0806 6.9913L57.0854 5.43366C56.9845 5.28944 56.9268 5.138 56.9123 4.97935C56.8979 4.82071 56.8907 4.66927 56.8907 4.52504V0.977101C56.8907 0.703073 56.8258 0.508368 56.696 0.392988C56.5806 0.263185 56.3859 0.198283 56.1119 0.198283H52.7803C52.5063 0.198283 52.3043 0.263185 52.1745 0.392988C52.0592 0.508368 52.0015 0.703073 52.0015 0.977101V5.13079C52.0015 5.79423 52.052 6.2918 52.1529 6.62352C52.2683 6.95524 52.4918 7.34465 52.8236 7.79175L56.1335 12.2267V14.9958C56.1335 15.2698 56.1912 15.4717 56.3066 15.6016C56.4364 15.7169 56.6383 15.7746 56.9123 15.7746Z" fill="#9CFF94"/>
<path d="M78.5911 15.7746H68.553C68.279 15.7746 68.0771 15.7169 67.9473 15.6016C67.8319 15.4717 67.7742 15.2698 67.7742 14.9958V0.977101C67.7742 0.703073 67.8319 0.508368 67.9473 0.392988C68.0771 0.263185 68.279 0.198283 68.553 0.198283H78.5911C78.8651 0.198283 79.0598 0.263185 79.1752 0.392988C79.305 0.508368 79.3699 0.703073 79.3699 0.977101V3.50826C79.3699 3.78228 79.305 3.9842 79.1752 4.114C79.0598 4.22938 78.8651 4.28707 78.5911 4.28707H72.6202V5.95287H76.8388C77.1128 5.95287 77.3075 6.01778 77.4229 6.14758C77.5527 6.26296 77.6176 6.45766 77.6176 6.73169V9.04651C77.6176 9.32054 77.5527 9.52245 77.4229 9.65226C77.3075 9.76764 77.1128 9.82533 76.8388 9.82533H72.6202V11.6858H78.5911C78.8651 11.6858 79.0598 11.7507 79.1752 11.8805C79.305 11.9959 79.3699 12.1906 79.3699 12.4646V14.9958C79.3699 15.2698 79.305 15.4717 79.1752 15.6016C79.0598 15.7169 78.8651 15.7746 78.5911 15.7746Z" fill="#9CFF94"/>
<path fill-rule="evenodd" clip-rule="evenodd" d="M82.708 15.7746H86.0396C86.3136 15.7746 86.5083 15.7169 86.6237 15.6016C86.7535 15.4717 86.8184 15.2698 86.8184 14.9958V10.7556H89.8471C90.15 10.7556 90.3591 10.8349 90.4745 10.9936C90.6043 11.1378 90.6692 11.3685 90.6692 11.6858V14.9958C90.6692 15.2698 90.7269 15.4717 90.8423 15.6016C90.9721 15.7169 91.174 15.7746 91.448 15.7746H94.8013C95.0753 15.7746 95.27 15.7169 95.3854 15.6016C95.5152 15.4717 95.5801 15.2698 95.5801 14.9958V10.4094C95.5801 9.50082 95.3349 8.77248 94.8445 8.22442C94.3686 7.67637 93.7412 7.35907 92.9624 7.27254C93.4095 7.08504 93.7196 6.78217 93.8926 6.36392C94.0801 5.93124 94.1739 5.41203 94.1739 4.80628V3.81113C94.1739 2.74386 93.8638 1.87851 93.2436 1.21507C92.6379 0.537213 91.5273 0.198283 89.912 0.198283H82.708C82.4339 0.198283 82.232 0.263185 82.1022 0.392988C81.9868 0.508368 81.9291 0.703073 81.9291 0.977101V14.9958C81.9291 15.2698 81.9868 15.4717 82.1022 15.6016C82.232 15.7169 82.4339 15.7746 82.708 15.7746ZM86.8184 6.86149V4.09237H88.4409C88.8159 4.09237 89.0683 4.19333 89.1981 4.39524C89.3279 4.58273 89.3928 4.82071 89.3928 5.10916V5.84471C89.3928 6.13316 89.3279 6.37834 89.1981 6.58026C89.0683 6.76775 88.8159 6.86149 88.4409 6.86149H86.8184Z" fill="#9CFF94"/>
</g>
<defs>
<clipPath id="clip0_606_5821">
<rect width="95.5493" height="16" fill="white"/>
</clipPath>
</defs>
</svg>