<svg xmlns="http://www.w3.org/2000/svg" width="161" height="28" viewBox="0 0 161 28" fill="none">
<path d="M1.73181 20.9748C0.523956 22.1238 0.436935 24.1039 1.91275 24.9088C3.03603 25.5215 4.28635 25.877 5.57882 25.9342C7.87488 26.036 10.1159 25.1884 11.8089 23.5779C13.5019 21.9675 14.5081 19.7261 14.6063 17.3468C14.6955 15.1866 14.0294 13.0733 12.7427 11.3895C12.5283 11.1089 12.1226 11.0907 11.8693 11.3315L5.949 16.9632L1.73181 20.9748Z" fill="#1460F3"/>
<path d="M5.58719 14.6166C5.38345 14.812 5.05566 14.7986 4.88158 14.5727C3.83683 13.2169 3.29199 11.5122 3.35707 9.76684C3.42874 7.84457 4.2344 6.03053 5.59681 4.7238C6.95922 3.41707 8.76677 2.72468 10.6218 2.79895C11.6659 2.84076 12.6769 3.12349 13.5862 3.61442C14.7811 4.25959 14.7174 5.85952 13.7454 6.79171L10.3516 10.0469L5.58719 14.6166Z" fill="#1460F3"/>
<path d="M27.0635 12.7874C24.8143 12.252 23.0818 12.126 23.0818 10.4882C23.0818 9.35433 24.1152 8.59842 26.0301 8.59842C28.1632 8.59842 28.916 9.54432 29.222 10.6068C29.311 10.9155 29.5783 11.1496 29.8996 11.1496H31.7333C32.1165 11.1496 32.4223 10.8221 32.3501 10.4458C31.8737 7.96209 29.8656 5.98425 25.9997 5.98425C22.1092 5.98425 19.86 8.09449 19.86 10.7402C19.86 14.3937 23.2034 14.8976 25.6654 15.4961C27.945 16.063 29.7991 16.2205 29.7991 18.2362C29.7991 19.2441 28.8568 20.378 26.638 20.378C23.7406 20.378 22.8323 19.2247 22.5545 17.7629C22.4908 17.4276 22.2121 17.1654 21.8708 17.1654H20.062C19.6869 17.1654 19.3843 17.4794 19.4335 17.8513C19.8352 20.8883 22.0278 22.9921 26.6988 22.9921C30.4678 22.9921 33.0209 21.0709 33.0209 17.9843C33.0209 14.1417 29.9206 13.4803 27.0635 12.7874Z" fill="white"/>
<path d="M42.6046 5.98425C40.1847 5.98425 38.668 7.16953 37.8445 8.29848C37.8369 8.3089 37.8249 8.31496 37.812 8.31496C37.7898 8.31496 37.7718 8.29694 37.7718 8.27472V7.08348C37.7718 6.71992 37.477 6.4252 37.1135 6.4252H35.2082C34.8446 6.4252 34.5499 6.71992 34.5499 7.08348V27.3417C34.5499 27.7053 34.8446 28 35.2082 28H37.1135C37.477 28 37.7718 27.7053 37.7718 27.3417V20.6382C37.7718 20.6163 37.7896 20.5984 37.8116 20.5984C37.8247 20.5984 37.8369 20.6048 37.8444 20.6156C38.6678 21.8067 40.1846 22.9921 42.6046 22.9921C46.5559 22.9921 49.5042 19.7795 49.5042 14.4882C49.5042 9.19685 46.5559 5.98425 42.6046 5.98425ZM41.9967 20.2835C39.4131 20.2835 37.8022 18.0472 37.8022 14.4882C37.8022 10.8976 39.4131 8.69291 41.9967 8.69291C44.793 8.69291 46.2823 11.3386 46.2823 14.4882C46.2823 17.6378 44.793 20.2835 41.9967 20.2835Z" fill="white"/>
<path d="M58.0864 20.2835C55.4921 20.2835 53.8707 18.3998 53.6216 15.9961C53.5841 15.6344 53.8827 15.3386 54.2463 15.3386H64.8445C65.2081 15.3386 65.5041 15.0426 65.4916 14.6793C65.3074 9.32998 62.8457 5.98425 58.0257 5.98425C53.3449 5.98425 50.3966 9.25984 50.3966 14.4882C50.3966 19.5276 53.3449 22.9921 58.1776 22.9921C61.7985 22.9921 64.0369 21.0648 65.0072 18.418C65.1553 18.0138 64.8399 17.6063 64.4094 17.6063H62.5674C62.2722 17.6063 62.0181 17.8052 61.895 18.0735C61.4497 19.0437 60.3441 20.2835 58.0864 20.2835ZM58.0257 8.59842C60.3757 8.59842 61.9965 10.0839 62.2702 12.2251C62.3163 12.5857 62.0166 12.8819 61.653 12.8819H54.2463C53.8827 12.8819 53.5827 12.5855 53.6326 12.2254C53.9289 10.084 55.6755 8.59842 58.0257 8.59842Z" fill="white"/>
<path d="M75.4417 5.98425C72.7795 5.98425 71.1711 7.23229 70.3469 8.48619C70.3396 8.49733 70.3273 8.50394 70.314 8.50394C70.2922 8.50394 70.2745 8.48629 70.2745 8.46451V7.08348C70.2745 6.71992 69.9798 6.4252 69.6163 6.4252H67.7414C67.3778 6.4252 67.0831 6.71992 67.0831 7.08348V21.8614C67.0831 22.225 67.3778 22.5197 67.7414 22.5197H69.6163C69.9798 22.5197 70.2745 22.225 70.2745 21.8614V12.7244C70.2745 10.3307 71.8551 8.7874 74.3171 8.7874C76.5055 8.7874 77.3869 10.1732 77.3869 12.3465V21.8614C77.3869 22.225 77.6817 22.5197 78.0452 22.5197H79.9505C80.3141 22.5197 80.6088 22.225 80.6088 21.8614V11.4016C80.6088 7.71654 78.3292 5.98425 75.4417 5.98425Z" fill="white"/>
<path d="M94.4893 0C94.1257 0 93.831 0.294726 93.831 0.658288V8.33834C93.831 8.36022 93.8133 8.37795 93.7914 8.37795C93.7782 8.37795 93.7659 8.37144 93.7585 8.36047C92.9351 7.13857 91.4184 5.98425 89.0286 5.98425C85.0469 5.98425 82.0986 9.19685 82.0986 14.4882C82.0986 19.7795 85.0469 22.9921 89.0286 22.9921C91.4181 22.9921 92.9347 21.7757 93.7582 20.6775C93.7658 20.6673 93.7778 20.6614 93.7906 20.6614C93.8129 20.6614 93.831 20.6795 93.831 20.7019V21.8614C93.831 22.225 94.1257 22.5197 94.4893 22.5197H96.3642C96.7277 22.5197 97.0225 22.225 97.0225 21.8614V0.658287C97.0225 0.294724 96.7277 0 96.3642 0H94.4893ZM89.5757 20.2835C86.7794 20.2835 85.2901 17.6378 85.2901 14.4882C85.2901 11.3386 86.7794 8.69291 89.5757 8.69291C92.1897 8.69291 93.8006 10.8976 93.8006 14.4882C93.8006 18.0472 92.1897 20.2835 89.5757 20.2835Z" fill="white"/>
<path d="M107.224 5.98425C104.834 5.98425 103.318 7.13857 102.494 8.36047C102.487 8.37144 102.475 8.37795 102.461 8.37795C102.44 8.37795 102.422 8.36022 102.422 8.33834V0.658288C102.422 0.294725 102.127 0 101.764 0H99.8887C99.5251 0 99.2304 0.294726 99.2304 0.658288V21.8614C99.2304 22.225 99.5251 22.5197 99.8887 22.5197H101.764C102.127 22.5197 102.422 22.225 102.422 21.8614V20.7019C102.422 20.6795 102.44 20.6614 102.462 20.6614C102.475 20.6614 102.487 20.6673 102.495 20.6775C103.318 21.7757 104.835 22.9921 107.224 22.9921C111.206 22.9921 114.154 19.7795 114.154 14.4882C114.154 9.19685 111.206 5.98425 107.224 5.98425ZM106.677 20.2835C104.063 20.2835 102.452 18.0472 102.452 14.4882C102.452 10.8976 104.063 8.69291 106.677 8.69291C109.473 8.69291 110.963 11.3386 110.963 14.4882C110.963 17.6378 109.473 20.2835 106.677 20.2835Z" fill="white"/>
<path d="M125.171 10.6457C125.171 12.189 123.712 12.5039 121.311 12.9764C117.42 13.7638 114.897 14.8661 114.897 18.3937C114.897 21.1024 116.843 22.9921 120.004 22.9921C122.394 22.9921 124.152 22.0247 125.127 20.6179C125.136 20.6057 125.149 20.5984 125.164 20.5984C125.186 20.5984 125.204 20.6142 125.209 20.6353C125.518 22.1831 126.309 22.8031 127.998 22.8031C128.481 22.8031 128.906 22.7634 129.426 22.6049C129.686 22.5257 129.852 22.2778 129.852 22.0063V21.6101C129.852 21.2203 129.505 20.9478 129.127 20.8526C128.504 20.6957 128.362 20.1419 128.362 19.2756V11.622C128.362 7.33858 125.809 5.98425 122.375 5.98425C118.048 5.98425 116.085 8.0563 115.692 10.8075C115.639 11.18 115.942 11.4961 116.318 11.4961H118.115C118.46 11.4961 118.741 11.2278 118.801 10.8882C119.092 9.25594 120.087 8.59842 122.375 8.59842C124.502 8.59842 125.171 9.48031 125.171 10.6457ZM120.703 20.378C118.97 20.378 118.119 19.5591 118.119 18.0787C118.119 16.4409 119.274 15.6535 121.919 15.0551C122.701 14.8898 123.416 14.707 123.993 14.5161C124.505 14.3469 125.171 14.7425 125.171 15.2814V16.4094C125.171 19.0236 123.347 20.378 120.703 20.378Z" fill="white"/>
<path d="M137.828 12.7874C135.579 12.252 133.846 12.126 133.846 10.4882C133.846 9.35433 134.879 8.59842 136.794 8.59842C138.927 8.59842 139.68 9.54432 139.986 10.6068C140.075 10.9155 140.343 11.1496 140.664 11.1496H142.498C142.881 11.1496 143.187 10.8221 143.114 10.4458C142.638 7.96209 140.63 5.98425 136.764 5.98425C132.873 5.98425 130.624 8.09449 130.624 10.7402C130.624 14.3937 133.968 14.8976 136.43 15.4961C138.709 16.063 140.563 16.2205 140.563 18.2362C140.563 19.2441 139.621 20.378 137.402 20.378C134.505 20.378 133.597 19.2247 133.319 17.7629C133.255 17.4276 132.976 17.1654 132.635 17.1654H130.826C130.451 17.1654 130.149 17.4794 130.198 17.8513C130.599 20.8883 132.792 22.9921 137.463 22.9921C141.232 22.9921 143.785 21.0709 143.785 17.9843C143.785 14.1417 140.685 13.4803 137.828 12.7874Z" fill="white"/>
<path d="M152.421 20.2835C149.827 20.2835 148.205 18.3998 147.956 15.9961C147.919 15.6344 148.217 15.3386 148.581 15.3386H159.179C159.542 15.3386 159.839 15.0426 159.826 14.6793C159.642 9.32998 157.18 5.98425 152.36 5.98425C147.679 5.98425 144.731 9.25984 144.731 14.4882C144.731 19.5276 147.679 22.9921 152.512 22.9921C156.133 22.9921 158.371 21.0648 159.342 18.418C159.49 18.0138 159.174 17.6063 158.744 17.6063H156.902C156.607 17.6063 156.353 17.8052 156.229 18.0735C155.784 19.0437 154.679 20.2835 152.421 20.2835ZM152.36 8.59842C154.71 8.59842 156.331 10.0839 156.605 12.2251C156.651 12.5857 156.351 12.8819 155.987 12.8819H148.581C148.217 12.8819 147.917 12.5855 147.967 12.2254C148.263 10.084 150.01 8.59842 152.36 8.59842Z" fill="white"/>
</svg>